HIERARCHY
ROOT Hips
{
  OFFSET -35.4901 99.2528 17.4586
  CHANNELS 6 Xposition Yposition Zposition Zrotation Xrotation Yrotation
  JOINT LeftUpLeg
  {
    OFFSET 8.64259 1.95398 -2.38835
    CHANNELS 3 Zrotation Xrotation Yrotation
    JOINT LeftLeg
    {
      OFFSET 43.7702 0 0
      CHANNELS 3 Zrotation Xrotation Yrotation
      JOINT LeftFoot
      {
        OFFSET 40.6238 0 0
        CHANNELS 3 Zrotation Xrotation Yrotation
        JOINT LeftToeBase
        {
          OFFSET 12.7242 0 0
          CHANNELS 3 Zrotation Xrotation Yrotation
          End Site
          {
            OFFSET 0 0 0
          }
        }
      }
    }
  }
  JOINT RightUpLeg
  {
    OFFSET -8.2249 1.95398 -2.59336
    CHANNELS 3 Zrotation Xrotation Yrotation
    JOINT RightLeg
    {
      OFFSET 43.5653 0 0
      CHANNELS 3 Zrotation Xrotation Yrotation
      JOINT RightFoot
      {
        OFFSET 40.6238 0 0
        CHANNELS 3 Zrotation Xrotation Yrotation
        JOINT RightToeBase
        {
          OFFSET 12.7242 0 0
          CHANNELS 3 Zrotation Xrotation Yrotation
          End Site
          {
            OFFSET 0 0 0
          }
        }
      }
    }
  }
  JOINT Spine
  {
    OFFSET 0.165834 0.87714 6.61349
    CHANNELS 3 Zrotation Xrotation Yrotation
    JOINT Spine1
    {
      OFFSET 7.38963 1.71661e-005 0
      CHANNELS 3 Zrotation Xrotation Yrotation
      JOINT Spine2
      {
        OFFSET 11.9445 1.14441e-005 0
        CHANNELS 3 Zrotation Xrotation Yrotation
        JOINT Spine3
        {
          OFFSET 14.7254 4.19617e-005 0
          CHANNELS 3 Zrotation Xrotation Yrotation
          JOINT Spine4
          {
            OFFSET 10.9679 0 0
            CHANNELS 3 Zrotation Xrotation Yrotation
            JOINT RightShoulder
            {
              OFFSET 2.46616 -1.6653 3.69651
              CHANNELS 3 Zrotation Xrotation Yrotation
              JOINT RightArm
              {
                OFFSET 13.0012 0 0
                CHANNELS 3 Zrotation Xrotation Yrotation
                JOINT RightForeArm
                {
                  OFFSET 28.7848 1.52588e-005 0
                  CHANNELS 3 Zrotation Xrotation Yrotation
                  JOINT RightHand
                  {
                    OFFSET 26.5688 1.52588e-005 0
                    CHANNELS 3 Zrotation Xrotation Yrotation
                    End Site
                    {
                      OFFSET 0 0 0
                    }
                  }
                }
              }
            }
            JOINT LeftShoulder
            {
              OFFSET 2.38034 -1.29275 -3.7523
              CHANNELS 3 Zrotation Xrotation Yrotation
              JOINT LeftArm
              {
                OFFSET 16.3182 6.10351e-005 0
                CHANNELS 3 Zrotation Xrotation Yrotation
                JOINT LeftForeArm
                {
                  OFFSET 27.0901 0 0
                  CHANNELS 3 Zrotation Xrotation Yrotation
                  JOINT LeftHand
                  {
                    OFFSET 24.5451 1.52588e-005 0
                    CHANNELS 3 Zrotation Xrotation Yrotation
                    End Site
                    {
                      OFFSET 0 0 0
                    }
                  }
                }
              }
            }
            JOINT Neck
            {
              OFFSET 5.0226 -0.0266342 0
              CHANNELS 3 Zrotation Xrotation Yrotation
              JOINT Head
              {
                OFFSET 6.69364 2.86102e-005 0
                CHANNELS 3 Zrotation Xrotation Yrotation
                End Site
                {
                  OFFSET 0 0 0
                }
              }
            }
          }
        }
      }
    }
  }
}
MOTION
Frames:	6
Frame Time:	0.0416667
8.66439 99.983 -4.9665 -102.451 -49.3246 -100.036 -176.661 -4.23821 91.7403 -11.8446 7.05342 0.972458 69.1142 4.31796 -5.00719 20.6669 -2.64895 4.51756 169.375 -5.96121 85.4589 -9.02067 -11.9805 -1.93194 66.1862 -3.3713 1.26568 28.89 -1.59385 4.29583 0.18467 7.89742 -90.0738 11.0793 0.333446 -0.179152 -0.591662 0.325205 -0.193644 -23.1271 0.371841 -0.070656 -3.11449 0.37185 -0.0706563 87.5817 -32.0444 -110.624 39.5193 -10.3731 -4.01669 3.01612 -25.1229 -14.9926 -25.1435 -0.029134 -7.81412 -85.1917 -50.9713 86.0788 -21.7066 18.9248 -17.1606 1.27097 14.0448 -9.70236 2.00882 -0.0908383 -4.37806 2.46641 2.35981 -1.56661 -6.38616 2.53862 1.15601 
8.66212 99.9852 -4.93559 -102.54 -49.2476 -100.111 -176.762 -4.44824 91.6819 -11.6346 5.9118 0.994716 69.515 4.30024 -8.37676 20.8776 -6.7404 10.4633 169.5 -5.95448 85.4806 -9.1729 -11.7148 -2.08183 66.6127 -3.50109 1.37136 28.4631 -1.50962 4.08405 0.224502 7.9411 -90.1163 10.9921 0.393002 -0.268839 -0.678758 0.380798 -0.285882 -23.2143 0.455631 -0.13829 -3.20167 0.455635 -0.138301 88.2794 -31.2061 -109.641 39.9477 -10.8057 -4.5526 2.89857 -25.2533 -16.2873 -27.9006 -0.500233 -5.35949 -85.274 -51.3754 86.0094 -21.7556 18.4106 -17.8477 1.56564 15.0966 -9.4054 1.22366 -0.107986 -4.91802 2.90774 2.13043 -0.698293 -6.31959 2.19192 0.702256 
8.6762 99.9899 -4.93882 -102.524 -49.2109 -100.082 -176.657 -4.54632 91.8243 -11.4199 5.82539 0.873214 70.244 4.37833 -11.5702 22.2297 -11.4157 17.6986 169.538 -6.11925 85.5256 -8.85266 -11.9292 -2.12684 66.4782 -3.4864 1.13748 28.6634 -1.41403 3.81971 0.221348 7.92746 -90.0972 11.02 0.395655 -0.231226 -0.650914 0.385103 -0.248418 -23.1865 0.446862 -0.101617 -3.17386 0.446856 -0.101629 88.0695 -31.7045 -109.837 39.4648 -11.2048 -4.45843 3.00932 -25.679 -16.5194 -28.2046 -0.575194 -5.08168 -85.1267 -50.9255 86.1701 -21.9304 18.7465 -17.798 1.39325 14.9328 -9.32306 1.13589 -0.115304 -5.17795 3.11492 2.17242 -1.0687 -6.54317 2.28939 0.832884 
8.69116 100.005 -4.93716 -102.646 -49.1154 -100.151 -176.651 -4.65583 91.8256 -11.5106 5.95504 0.89259 70.2396 4.32308 -12.04 22.5815 -12.6038 19.5479 169.566 -6.23146 85.5249 -8.79868 -11.8185 -2.17615 66.4936 -3.48137 1.3786 28.4284 -1.48261 4.01319 0.239914 7.92184 -90.1024 11.0186 0.43017 -0.245042 -0.652261 0.41896 -0.263729 -23.1879 0.483927 -0.104417 -3.1753 0.483909 -0.104427 88.2241 -31.6863 -109.548 39.4674 -11.4418 -4.5784 3.21612 -25.1271 -16.2275 -27.1404 -0.344634 -6.11371 -85.0932 -50.9476 86.223 -21.8408 18.8977 -17.8989 1.23826 14.8421 -9.14969 1.55806 -0.115501 -5.08037 3.12701 2.18173 -0.919456 -6.327 2.28485 0.563452 
8.69272 100.029 -4.92544 -102.787 -48.9871 -100.174 -176.574 -4.74267 91.8443 -11.6659 5.83026 0.857262 69.9043 4.39476 -8.27119 20.8936 -6.82301 10.6133 169.561 -6.4618 85.561 -8.55155 -11.9948 -2.16885 66.3261 -3.44407 1.30915 28.4933 -1.43996 3.89642 0.246682 7.91836 -90.1101 11.0153 0.440016 -0.26159 -0.655603 0.428086 -0.280714 -23.1913 0.498313 -0.117249 -3.17865 0.498296 -0.117249 88.1882 -31.7525 -109.59 39.4658 -11.477 -4.46035 2.91268 -25.1128 -16.5185 -26.4187 -0.309652 -6.29714 -85.0505 -50.9597 86.2881 -22.0786 18.6069 -17.7364 1.47776 15.219 -9.22904 1.67975 -0.11481 -5.39315 3.39419 2.0722 -0.85527 -6.67185 2.17644 0.315706 
8.71557 100.025 -4.9276 -102.857 -49.013 -100.243 -176.574 -4.67698 91.828 -11.9119 5.95426 0.864895 70.3813 4.55117 -8.04607 19.4944 -6.79642 10.4251 169.551 -6.60165 85.5342 -8.3567 -11.8588 -2.19064 66.3773 -3.48614 1.48558 28.337 -1.50551 4.07818 0.238674 7.91646 -90.1231 11.0032 0.41805 -0.285503 -0.667746 0.405114 -0.303635 -23.2034 0.484527 -0.146667 -3.1907 0.48455 -0.146656 88.2416 -31.5644 -109.565 39.6136 -11.423 -4.36154 2.7601 -25.2519 -16.8158 -26.2579 -0.344425 -6.15046 -85.1235 -50.9813 86.182 -21.9046 18.9586 -17.8299 1.21774 14.6767 -9.24004 1.42892 -0.116591 -5.35225 3.40128 2.02103 -0.667651 -6.50192 2.09968 0.18512 
